<svg xmlns="http://www.w3.org/2000/svg" width="693" height="150" fill="none" viewBox="0 0 693 150"><path fill="#1a1612" d="m668.251 73.696.448 2.88q-8 2.56-12.928 4.928t-7.552 4.736q-2.56 2.368-3.52 5.056t-.96 5.952q0 5.44 2.816 8.064 2.88 2.624 7.104 2.624 3.2 0 5.568-1.28 2.432-1.28 3.776-3.776 1.408-2.496 1.408-6.272V66.976q0-6.144-3.136-9.408-3.072-3.264-9.344-3.264-3.072 0-6.016.448-2.944.384-4.672 1.152l3.2-2.944a97 97 0 0 1-.768 5.696q-.448 2.624-1.024 4.608-.576 1.92-1.408 2.944-.896 1.152-2.752 1.856-1.792.64-3.776.64-2.624 0-4.096-.96-1.408-1.024-1.408-2.944 0-2.753 2.624-5.504 2.688-2.816 6.976-5.12 4.352-2.304 9.472-3.712 5.184-1.408 10.048-1.408 7.68 0 12.288 2.24t6.656 6.272q2.112 4.032 2.112 9.472v36.864q0 1.984.64 3.2a4.12 4.12 0 0 0 1.792 1.728q1.152.512 2.624.512 1.984 0 3.904-.576 1.984-.64 4.096-1.984v2.176q-4.8 5.311-8.704 6.912-3.84 1.536-8.192 1.536-4.096 0-6.528-1.728t-3.52-5.12q-1.024-3.456-1.216-8.384l.384.192q-1.152 4.544-3.648 7.936-2.432 3.392-5.952 5.248-3.456 1.792-7.68 1.792-8.32 0-13.568-4.288-5.184-4.352-5.184-12.352 0-4.16 1.408-7.36t5.504-6.08q4.096-2.944 11.968-6.144 7.872-3.264 20.736-7.424M607.51 40.096q-4.416 0-6.976-2.88-2.496-2.944-2.496-6.656 0-3.648 2.496-6.272 2.56-2.688 6.976-2.688t6.784 2.688q2.432 2.625 2.432 6.272 0 3.712-2.432 6.656-2.368 2.88-6.784 2.88m8.448 8.384v63.744l8.256 1.984V116H592.47v-1.792l8.448-1.984V62.752a42 42 0 0 0-2.048-1.536 124 124 0 0 0-3.008-2.176l-3.712-2.752v-1.344l23.232-6.464zM581.183 112.224l8.448 1.984V116h-31.872v-1.792l8.384-1.984V33.696q-.832-.448-2.368-1.28-1.472-.832-3.52-1.984-2.048-1.215-4.544-2.624v-1.344l24.896-5.568h.576z"/><path fill="#1a1612" d="m535.056 73.696.448 2.88q-8 2.56-12.928 4.928t-7.552 4.736q-2.56 2.368-3.52 5.056t-.96 5.952q0 5.44 2.816 8.064 2.88 2.624 7.104 2.624 3.2 0 5.568-1.28 2.432-1.28 3.776-3.776 1.408-2.496 1.408-6.272V66.976q0-6.144-3.136-9.408-3.072-3.264-9.344-3.264-3.072 0-6.016.448-2.944.384-4.672 1.152l3.2-2.944a97 97 0 0 1-.768 5.696q-.448 2.624-1.024 4.608-.576 1.92-1.408 2.944-.896 1.152-2.752 1.856-1.792.64-3.776.64-2.624 0-4.096-.96-1.408-1.024-1.408-2.944 0-2.753 2.624-5.504 2.688-2.816 6.976-5.12 4.352-2.304 9.472-3.712 5.184-1.408 10.048-1.408 7.68 0 12.288 2.24t6.656 6.272q2.112 4.032 2.112 9.472v36.864q0 1.984.64 3.2a4.12 4.12 0 0 0 1.792 1.728q1.152.512 2.624.512 1.984 0 3.904-.576 1.984-.64 4.096-1.984v2.176q-4.8 5.311-8.704 6.912-3.84 1.536-8.192 1.536-4.096 0-6.528-1.728t-3.52-5.12q-1.024-3.456-1.216-8.384l.384.192q-1.152 4.544-3.648 7.936-2.432 3.392-5.952 5.248-3.456 1.792-7.68 1.792-8.32 0-13.568-4.288-5.184-4.352-5.184-12.352 0-4.16 1.408-7.36t5.504-6.08q4.096-2.944 11.968-6.144 7.872-3.264 20.736-7.424M441.321 112.224l8.32 1.984V116h-31.744v-1.792l8.384-1.984V62.752a143 143 0 0 0-2.944-2.304q-1.92-1.472-5.76-4.16v-1.344l23.232-6.464h.512zm18.304 1.984 8.32-1.984V71.712q0-4.032-1.344-6.656t-4.16-3.904q-2.752-1.344-7.168-1.344t-8.576 1.216q-4.096 1.216-7.168 2.688l-.64-1.28q4.992-4.224 8.576-6.848 3.648-2.624 6.528-3.968 2.88-1.409 5.504-1.92 2.624-.512 5.696-.512 9.28 0 13.504 4.992 4.288 4.992 4.288 15.424v42.624l8.448 1.984V116h-31.808zM398.5 40.096q-4.416 0-6.976-2.88-2.496-2.944-2.496-6.656 0-3.648 2.496-6.272 2.56-2.688 6.976-2.688t6.784 2.688q2.432 2.625 2.432 6.272 0 3.712-2.432 6.656-2.368 2.88-6.784 2.88m8.448 8.384v63.744l8.256 1.984V116H383.46v-1.792l8.448-1.984V62.752a42 42 0 0 0-2.048-1.536 124 124 0 0 0-3.008-2.176l-3.712-2.752v-1.344l23.232-6.464z"/><path fill="#1a1612" d="M344.434 145.76q-7.744 0-13.184-1.152-5.376-1.088-8.768-3.072-3.328-1.985-4.864-4.608t-1.536-5.568q0-2.432 1.344-4.608t4.288-4.16q2.944-1.92 7.808-3.648 4.864-1.664 12.032-3.008h4.928v1.024q-7.36.96-11.584 2.816-4.16 1.92-5.952 4.416-1.728 2.496-1.728 5.376 0 4.096 2.56 6.976t7.168 4.416 11.008 1.536q7.232 0 11.968-1.664t7.04-4.48q2.368-2.816 2.368-6.4 0-2.688-1.472-4.544t-4.608-3.136q-3.136-1.216-8.192-1.984t-12.224-1.28q-6.016-.576-10.048-1.792t-6.4-3.072q-2.304-1.856-3.328-4.224-.96-2.368-.96-5.376 0-5.12 4.672-8.704 4.736-3.648 13.056-5.44l.832 1.536q-4.48.32-6.272 2.112t-1.792 3.776q0 1.728.768 3.008.768 1.216 2.816 2.112 2.048.832 5.888 1.472 3.904.64 10.112 1.152 7.423.64 12.672 2.048 5.248 1.408 8.576 3.648 3.392 2.24 4.928 5.248 1.6 3.072 1.6 7.04 0 5.824-3.84 10.88t-11.712 8.192-19.968 3.136m1.28-52.928q-7.36 0-13.12-2.752-5.76-2.816-9.088-7.744-3.264-4.927-3.264-11.328t3.328-11.328q3.328-4.992 9.024-7.808 5.76-2.816 12.992-2.816 5.696 0 10.368 1.6 4.736 1.6 8.192 4.544t5.312 6.976q1.856 3.968 1.856 8.832 0 6.336-3.328 11.264-3.264 4.928-9.024 7.744t-13.248 2.816m1.792-2.688q5.312-.64 7.68-5.952 2.368-5.376 1.6-13.376-.704-9.28-4.096-14.336-3.328-5.12-8.896-4.736-4.928.448-7.36 5.888-2.431 5.376-1.728 13.312.64 9.088 4.032 14.336 3.456 5.248 8.768 4.864m6.656-38.528-2.944-2.048q8.767.576 14.208.448 5.44-.192 8.448-.704 3.008-.576 4.48-1.024 1.536-.448 2.496-.448 1.152 0 1.92.832t.768 2.88q0 3.968-2.048 6.336-2.048 2.304-4.48 2.304-1.6 0-3.264-1.152a214 214 0 0 0-4.096-2.752q-2.368-1.6-6.08-2.944t-9.408-1.728M311.987 49.248q3.072 0 4.864 1.792t1.792 4.864q0 3.776-2.368 6.208t-5.952 2.432q-1.792 0-3.392-.384a203 203 0 0 0-3.328-.768q-1.664-.384-3.776-.384-1.856 0-3.52.576a13.1 13.1 0 0 0-3.136 1.664q-1.472 1.088-3.136 2.624v-2.88q4.992-5.376 8.384-8.512 3.456-3.2 5.824-4.736t4.16-1.984a13 13 0 0 1 3.584-.512m-20.736 62.976 9.728 1.984V116h-33.152v-1.792l8.384-1.984V62.752a37 37 0 0 0-1.984-1.408 163 163 0 0 0-2.752-2.048q-1.6-1.215-3.968-3.008v-1.344l23.232-6.464h.512z"/><path fill="#1a1612" d="m244.356 73.696.448 2.88q-8 2.56-12.928 4.928t-7.552 4.736q-2.56 2.368-3.52 5.056t-.96 5.952q0 5.44 2.816 8.064 2.88 2.624 7.104 2.624 3.2 0 5.568-1.28 2.432-1.28 3.776-3.776 1.408-2.496 1.408-6.272V66.976q0-6.144-3.136-9.408-3.072-3.264-9.344-3.264-3.072 0-6.016.448-2.944.384-4.672 1.152l3.2-2.944a97 97 0 0 1-.768 5.696q-.448 2.624-1.024 4.608-.576 1.92-1.408 2.944-.896 1.152-2.752 1.856-1.792.64-3.776.64-2.624 0-4.096-.96-1.408-1.024-1.408-2.944 0-2.753 2.624-5.504 2.688-2.816 6.976-5.12 4.352-2.304 9.472-3.712 5.184-1.408 10.048-1.408 7.68 0 12.288 2.24t6.656 6.272q2.112 4.032 2.112 9.472v36.864q0 1.984.64 3.2a4.12 4.12 0 0 0 1.792 1.728q1.152.512 2.624.512 1.984 0 3.904-.576 1.984-.64 4.096-1.984v2.176q-4.8 5.311-8.704 6.912-3.84 1.536-8.192 1.536-4.097 0-6.528-1.728-2.432-1.728-3.52-5.12-1.024-3.456-1.216-8.384l.384.192q-1.152 4.544-3.648 7.936-2.431 3.392-5.952 5.248-3.456 1.792-7.68 1.792-8.32 0-13.568-4.288-5.184-4.352-5.184-12.352 0-4.16 1.408-7.36t5.504-6.08q4.096-2.944 11.968-6.144 7.872-3.264 20.736-7.424M191.024 111.072l11.328 2.944V116h-40.256v-1.984l11.456-2.688-6.016-79.616.96.128-34.688 85.184h-5.824l-36.48-83.456.96-.192-4.992 78.016 12.224 2.624V116H72.048v-1.984l11.072-2.624 5.184-80.512-11.712-4.416V24.48h29.44l32.704 75.136h-2.24l30.336-75.136h30.016v1.984l-12.416 2.816z"/><path fill="#943c26" d="M0 6a6 6 0 0 1 6-6h36a6 6 0 0 1 6 6v138a6 6 0 0 1-6 6H6a6 6 0 0 1-6-6z"/><path fill="#b84a2e" d="M2 6a6 6 0 0 1 6-6h36a6 6 0 0 1 6 6v138a6 6 0 0 1-6 6H8a6 6 0 0 1-6-6z"/><path fill="#fff" d="m36.24 84.056-.648-.984q.84.072 1.944-.264t2.496-1.272q1.416-.936 3.096-2.616l.48.456q-1.968 2.592-3.696 4.176-1.728 1.56-3.24 2.28-1.488.696-2.808.696-1.728 0-2.28-.624-.528-.648.072-2.112l5.256-13.08q.504-1.248.696-1.848.192-.624.192-1.056 0-.648-.432-1.008-.408-.36-1.368-.36-1.104 0-2.352.84-1.224.816-2.4 2.232a21 21 0 0 0-2.184 3.168 22.6 22.6 0 0 0-1.632 3.6L24.12 86h-4.704l5.472-16.032q.216-.576.312-.984.12-.432.168-.744a2.5 2.5 0 0 0 .072-.552q0-.648-.408-.936-.384-.312-1.2-.312-1.008 0-2.184.816-1.176.792-2.352 2.208a21.4 21.4 0 0 0-2.16 3.264 21.3 21.3 0 0 0-1.656 3.864L12.384 86H7.752l6.168-19.08a.7.7 0 0 0-.048-.456q-.072-.192-.36-.192-.672 0-1.512.456-.816.432-1.848 1.632-1.008 1.2-2.256 3.48l-.576-.24q1.344-3.408 2.712-5.328 1.392-1.944 2.88-2.736a6.44 6.44 0 0 1 3.144-.816q.648 0 1.152.072.528.048 1.008.168.504.096 1.056.264l-3 9.672-.216-.048q1.68-3.048 3.072-5.016 1.392-1.992 2.616-3.096 1.248-1.128 2.4-1.584a6.3 6.3 0 0 1 2.328-.456q1.968 0 2.88.864t.912 2.328q0 .648-.192 1.464a20 20 0 0 1-.528 1.944l-1.224 3.72h-.36q1.656-2.976 3.072-4.968 1.44-1.992 2.712-3.168 1.296-1.176 2.52-1.68a6.2 6.2 0 0 1 2.472-.528q2.184 0 3.096.96t.912 2.4q0 .84-.264 1.896-.24 1.056-1.008 2.928z"/><path fill="#fff" fill-opacity=".4" d="M41 20v2H11v-2zM39 126v2H9v-2z"/></svg>